<mxfile host="app.diagrams.net" modified="2024-03-17T19:06:47.767Z" agent="Mozilla/5.0 (Macintosh; Intel Mac OS X 10.15; rv:123.0) Gecko/20100101 Firefox/123.0" version="24.0.7" etag="8wrA7hho3bT0d3NoDq6g" type="github">
  <diagram name="Page-1" id="1sVsvAT_UA8klSTaUw1X">
    <mxGraphModel>
      <root>
        <mxCell id="0" />
        <mxCell id="1" parent="0" />
      </root>
    </mxGraphModel>
  </diagram>
</mxfile>
